<?xml version="1.0" standalone="no"?>
<!DOCTYPE svg PUBLIC "-//W3C//DTD SVG 20010904//EN"
 "http://www.w3.org/TR/2001/REC-SVG-20010904/DTD/svg10.dtd">
<svg version="1.0" xmlns="http://www.w3.org/2000/svg"
 width="201.000000pt" height="175.000000pt" viewBox="0 0 201.000000 175.000000"
 preserveAspectRatio="xMidYMid meet">

<g transform="translate(0.000000,175.000000) scale(0.100000,-0.100000)"
fill="#ff2f00" stroke="none">
<path d="M667 1153 c-159 -159 -293 -296 -298 -306 -9 -16 9 -38 117 -148 71
-71 135 -129 144 -129 19 0 614 594 609 608 -8 23 -251 262 -267 262 -9 0
-146 -129 -305 -287z m390 115 c46 -46 83 -87 83 -92 0 -14 -42 -56 -56 -56
-6 0 -17 7 -24 15 -16 19 -44 19 -60 0 -11 -13 -9 -21 10 -47 l22 -30 -30 -30
-29 -30 -49 46 c-51 48 -74 55 -93 32 -16 -19 -5 -39 48 -90 l41 -40 -27 -28
c-27 -28 -53 -37 -53 -18 0 5 -9 14 -19 20 -15 7 -25 5 -43 -9 l-23 -19 23
-32 24 -32 -28 -29 -28 -29 -51 50 c-55 54 -78 61 -95 29 -13 -23 -11 -25 53
-90 l40 -40 -31 -32 -32 -32 -85 85 c-47 47 -85 88 -85 92 0 8 500 515 510
517 2 1 42 -36 87 -81z"/>
<path d="M1266 1064 c-14 -13 -16 -50 -16 -245 l0 -229 -224 0 c-123 0 -231
-3 -240 -6 -24 -9 -24 -289 0 -298 9 -3 183 -6 388 -6 276 0 375 3 384 12 9 9
12 108 12 384 0 325 -2 375 -16 388 -23 23 -265 23 -288 0z m231 -386 l-2
-323 -327 -3 -328 -2 0 85 0 85 44 0 c43 0 45 -1 48 -31 6 -63 68 -67 68 -4 0
35 0 35 45 35 43 0 45 -1 45 -28 0 -32 16 -52 41 -52 22 0 32 15 33 49 1 23 5
26 44 29 37 3 42 1 42 -18 0 -32 18 -60 40 -60 21 0 40 28 40 59 0 17 6 21 30
21 19 0 33 7 40 21 15 27 -3 49 -41 49 -28 0 -29 2 -29 45 0 43 1 45 30 45 19
0 33 7 40 21 15 27 -3 49 -41 49 -28 0 -29 2 -29 45 0 43 1 45 30 45 19 0 33
7 40 21 15 27 -1 46 -44 54 -28 6 -31 9 -31 46 l0 39 87 0 88 0 -3 -322z"/>
</g>
</svg>
