<?xml version="1.0" standalone="no"?>
<!DOCTYPE svg PUBLIC "-//W3C//DTD SVG 20010904//EN"
 "http://www.w3.org/TR/2001/REC-SVG-20010904/DTD/svg10.dtd">
<svg version="1.0" xmlns="http://www.w3.org/2000/svg"
 width="146.000000pt" height="146.000000pt" viewBox="0 0 146.000000 146.000000"
 preserveAspectRatio="xMidYMid meet">

<g transform="translate(0.000000,146.000000) scale(0.100000,-0.100000)"
fill="#ffffff" stroke="none">
<path d="M590 1309 c-20 -11 -46 -36 -59 -55 -20 -28 -30 -34 -60 -34 -54 0
-107 -18 -141 -47 -61 -51 -60 -44 -60 -483 0 -430 0 -429 52 -477 53 -50 75
-53 411 -53 207 0 326 4 348 11 52 17 105 74 118 125 15 57 15 735 0 787 -23
82 -101 137 -197 137 -35 0 -43 4 -62 35 -36 59 -82 75 -207 75 -90 0 -114 -4
-143 -21z m238 -105 c17 -12 22 -25 22 -60 l0 -44 -115 0 -115 0 0 40 c0 63
24 80 113 80 49 0 80 -5 95 -16z m-328 -144 c0 -27 7 -47 21 -61 19 -19 29
-20 220 -17 226 3 229 4 229 80 0 38 0 38 40 38 27 0 47 -7 60 -20 19 -19 20
-33 20 -390 0 -357 -1 -371 -20 -390 -19 -19 -33 -20 -335 -20 -302 0 -316 1
-335 20 -19 19 -20 33 -20 390 0 357 1 371 20 390 13 13 33 20 60 20 l40 0 0
-40z"/>
<path d="M535 858 c-40 -22 -47 -64 -17 -91 16 -15 47 -17 219 -17 181 0 201
2 216 18 29 32 21 69 -20 91 -29 15 -370 15 -398 -1z"/>
<path d="M520 610 c-21 -21 -25 -47 -12 -66 17 -27 56 -34 174 -34 140 0 168
10 168 60 0 54 -17 60 -171 60 -126 0 -141 -2 -159 -20z"/>
</g>
</svg>
