<?xml version="1.0" standalone="no"?>
<!DOCTYPE svg PUBLIC "-//W3C//DTD SVG 20010904//EN"
 "http://www.w3.org/TR/2001/REC-SVG-20010904/DTD/svg10.dtd">
<svg version="1.0" xmlns="http://www.w3.org/2000/svg"
 width="161.000000pt" height="171.000000pt" viewBox="0 0 161.000000 171.000000"
 preserveAspectRatio="xMidYMid meet">

<g transform="translate(0.000000,171.000000) scale(0.100000,-0.100000)"
fill="#ff2f00" stroke="none">
<path d="M595 1510 c-104 -3 -191 -7 -193 -8 -1 -1 -1 -55 0 -119 l3 -118 339
0 338 0 54 60 c30 33 54 64 54 70 0 6 -26 36 -58 68 l-58 57 -144 -2 c-80 -1
-230 -5 -335 -8z m493 -83 l33 -34 -35 -36 -35 -37 -230 0 -231 0 0 69 0 70
233 1 233 0 32 -33z m-558 -41 c0 -53 -3 -65 -17 -68 -45 -10 -53 1 -53 68 l0
64 35 0 35 0 0 -64z"/>
<path d="M289 1166 c-40 -14 -67 -37 -94 -79 -16 -25 -17 -61 -17 -418 1 -420
0 -410 53 -462 40 -38 64 -41 494 -45 461 -4 575 3 624 38 66 47 66 44 66 470
0 384 0 385 -23 422 -13 20 -40 47 -60 60 l-37 23 -485 2 c-380 2 -493 0 -521
-11z m1001 -116 c19 -19 20 -33 20 -380 0 -347 -1 -361 -20 -380 -19 -19 -33
-20 -495 -20 -462 0 -476 1 -495 20 -19 19 -20 33 -20 380 0 347 1 361 20 380
19 19 33 20 495 20 462 0 476 -1 495 -20z"/>
<path d="M420 930 c-19 -19 -20 -33 -20 -260 0 -301 -13 -280 169 -280 104 0
133 3 145 16 24 23 24 505 0 528 -12 13 -41 16 -145 16 -116 0 -131 -2 -149
-20z m210 -261 l0 -169 -60 0 -60 0 0 168 c0 93 2 171 4 173 2 2 29 2 60 1
l56 -4 0 -169z"/>
<path d="M876 934 c-24 -24 -20 -61 9 -80 23 -15 27 -15 50 0 30 20 33 56 7
79 -23 21 -46 22 -66 1z"/>
<path d="M1100 930 c-26 -26 -25 -42 3 -69 20 -17 29 -20 49 -12 23 9 38 29
38 52 0 14 -39 49 -55 49 -8 0 -24 -9 -35 -20z"/>
<path d="M872 708 c-15 -15 -15 -61 0 -76 28 -28 88 -2 88 37 0 43 -58 69 -88
39z"/>
<path d="M1094 695 c-15 -23 -15 -27 0 -50 20 -30 56 -33 79 -7 22 24 21 45
-1 65 -27 24 -59 21 -78 -8z"/>
<path d="M882 484 c-39 -27 -19 -94 27 -94 24 0 51 31 51 58 0 18 -33 52 -50
52 -3 0 -16 -7 -28 -16z"/>
<path d="M1119 493 c-9 -2 -22 -14 -29 -27 -23 -44 25 -90 69 -67 56 30 22
107 -40 94z"/>
</g>
</svg>
