<?xml version="1.0" standalone="no"?>
<!DOCTYPE svg PUBLIC "-//W3C//DTD SVG 20010904//EN"
 "http://www.w3.org/TR/2001/REC-SVG-20010904/DTD/svg10.dtd">
<svg version="1.0" xmlns="http://www.w3.org/2000/svg"
 width="63.000000pt" height="78.000000pt" viewBox="0 0 63.000000 78.000000"
 preserveAspectRatio="xMidYMid meet">

<g transform="translate(0.000000,78.000000) scale(0.100000,-0.100000)"
fill="#ffffff" stroke="none">
<path d="M292 520 c-26 -11 -42 -47 -42 -96 0 -31 -2 -34 -30 -34 -28 0 -30
-3 -30 -35 0 -32 2 -35 30 -35 l30 0 0 -85 0 -85 35 0 35 0 0 85 0 85 30 0
c17 0 30 5 30 13 0 6 3 22 6 35 6 20 3 22 -30 22 -33 0 -36 2 -36 28 0 34 16
52 47 52 19 0 23 5 23 30 0 28 -2 30 -37 29 -21 0 -48 -4 -61 -9z"/>
</g>
</svg>
