<?xml version="1.0" standalone="no"?>
<!DOCTYPE svg PUBLIC "-//W3C//DTD SVG 20010904//EN"
 "http://www.w3.org/TR/2001/REC-SVG-20010904/DTD/svg10.dtd">
<svg version="1.0" xmlns="http://www.w3.org/2000/svg"
 width="69.000000pt" height="76.000000pt" viewBox="0 0 69.000000 76.000000"
 preserveAspectRatio="xMidYMid meet">

<g transform="translate(0.000000,76.000000) scale(0.100000,-0.100000)"
fill="#ffffff" stroke="none">
<path d="M375 465 c-14 -13 -25 -35 -25 -49 0 -14 -3 -27 -8 -30 -15 -9 -113
31 -141 58 -15 14 -30 23 -34 19 -13 -12 -7 -58 10 -83 16 -22 16 -23 0 -17
-28 10 -20 -21 12 -54 19 -19 24 -29 15 -29 -22 0 0 -36 33 -53 l26 -14 -53
-20 -54 -20 38 -13 c21 -7 66 -10 101 -8 116 7 207 91 221 203 4 29 15 59 28
73 18 21 18 22 2 16 -16 -6 -17 -4 -7 14 12 23 5 28 -18 13 -10 -6 -25 -4 -42
5 -41 21 -77 17 -104 -11z"/>
</g>
</svg>
