<?xml version="1.0" standalone="no"?>
<!DOCTYPE svg PUBLIC "-//W3C//DTD SVG 20010904//EN"
 "http://www.w3.org/TR/2001/REC-SVG-20010904/DTD/svg10.dtd">
<svg version="1.0" xmlns="http://www.w3.org/2000/svg"
 width="72.000000pt" height="79.000000pt" viewBox="0 0 72.000000 79.000000"
 preserveAspectRatio="xMidYMid meet">

<g transform="translate(0.000000,79.000000) scale(0.100000,-0.100000)"
fill="#ffffff" stroke="none">
<path d="M162 563 c-36 -7 -55 -47 -60 -128 -6 -94 4 -161 29 -186 17 -17 35
-19 218 -19 254 0 244 -6 249 143 5 136 -6 173 -56 187 -35 9 -332 12 -380 3z
m208 -127 l63 -34 -61 -31 c-34 -17 -64 -31 -67 -31 -3 0 -5 29 -5 65 0 36 1
65 3 65 2 0 32 -15 67 -34z"/>
</g>
</svg>
